#!OML:ASF F:\VICON\USERDATA\INSTALL\rory3\rory3.ASF
:FULLY-SPECIFIED
:DEGREES
781
root 1.28029 33.2477 -3.34846 -170.663 -9.9524 -177.98
lowerback 5.68311 -0.892759 -5.28549
upperback -1.57689 -1.57776 0.409655
thorax -4.68033 -0.626262 3.54577
lowerneck -22.8675 0.209631 -19.7006
upperneck 37.4026 2.0074 10.6394
head 17.1549 -1.41569 8.56239
rclavicle -7.05686e-015 5.56597e-015
rhumerus -19.084 -2.74191 -85.4882
rradius 54.2603
rwrist -1.98753
rhand -28.2694 16.9561
rfingers 7.12502
rthumb -1.64607 -13.0173
lclavicle -7.05686e-015 5.56597e-015
lhumerus -7.22528 -20.994 90.3072
lradius 58.0061
lwrist 8.98687
lhand -24.7664 25.4217
lfingers 7.12502
lthumb 1.73715 55.3944
rfemur -22.8671 2.17073 22.0327
rtibia 33.6798
rfoot -20.6789 -2.35183
rtoes 9.89123
lfemur -23.7929 5.15443 -25.3207
ltibia 29.8235
lfoot -14.4622 5.97094
ltoes -12.8333
782
root 1.28983 33.249 -3.35073 -170.698 -9.9839 -177.917
lowerback 5.60746 -0.834801 -5.10962
upperback -1.5659 -1.48323 0.388141
thorax -4.63936 -0.586121 3.41368
lowerneck -22.4588 0.261463 -20.0753
upperneck 37.4491 1.9241 11.0526
head 17.0756 -1.46858 8.79804
rclavicle -9.24349e-015 1.51076e-014
rhumerus -19.198 -2.7977 -85.4466
rradius 54.3487
rwrist -1.96884
rhand -28.3369 16.8822
rfingers 7.12502
rthumb -1.71125 -13.0907
lclavicle -9.24349e-015 1.51076e-014
lhumerus -7.07062 -20.9994 90.3327
lradius 57.806
lwrist 9.15839
lhand -24.3037 25.3112
lfingers 7.12502
lthumb 2.18409 55.2797
rfemur -22.7797 2.10265 22.1984
rtibia 33.5262
rfoot -20.4088 -2.27073
rtoes 10.7059
lfemur -23.9377 5.12077 -25.2273
ltibia 30.1206
lfoot -14.434 5.9831
ltoes -12.9943
783
root 1.3 33.2488 -3.35497 -170.777 -10.0718 -178.099
lowerback 5.56596 -0.83405 -5.21039
upperback -1.46667 -1.48651 0.347895
thorax -4.51058 -0.591296 3.42616
lowerneck -22.2182 0.307003 -20.5145
upperneck 37.5049 1.918 11.4637
head 17.0261 -1.49557 9.06769
rclavicle -1.02374e-014 1.27222e-014
rhumerus -19.1738 -2.74658 -85.4361
rradius 54.4401
rwrist -2.02669
rhand -28.3881 16.802
rfingers 7.12502
rthumb -1.76077 -13.1705
lclavicle -1.02374e-014 1.27222e-014
lhumerus -6.88974 -20.8177 90.3536
lradius 57.6186
lwrist 9.18849
lhand -24.1005 24.9577
lfingers 7.12502
lthumb 2.38032 54.9242
rfemur -22.582 2.09019 22.0995
rtibia 33.3799
rfoot -20.4666 -2.57247
rtoes 10.6401
lfemur -23.9479 5.02043 -25.3689
ltibia 30.3986
lfoot -14.4946 6.00029
ltoes -12.8827
784
root 1.30956 33.256 -3.35994 -170.928 -10.1379 -178.227
lowerback 5.68438 -0.809372 -5.25571
upperback -1.47548 -1.46802 0.284831
thorax -4.58951 -0.579664 3.38732
lowerneck -21.7117 0.440029 -20.8484
upperneck 37.5655 1.89291 11.8742
head 16.9134 -1.52797 9.29968
rclavicle 1.13307e-014 -9.54166e-015
rhumerus -19.3973 -2.78729 -85.4924
rradius 54.5301
rwrist -2.01997
rhand -28.4633 16.7341
rfingers 7.12502
rthumb -1.83342 -13.2378
lclavicle 1.13307e-014 -9.54166e-015
lhumerus -7.04432 -20.7366 90.4068
lradius 57.5017
lwrist 8.97926
lhand -24.0678 24.4527
lfingers 7.12502
lthumb 2.41192 54.4189
rfemur -22.334 2.10655 22.0462
rtibia 33.2556
rfoot -20.6056 -3.06685
rtoes 9.93638
lfemur -23.894 5.04516 -25.4684
ltibia 30.6114
lfoot -14.4686 5.94146
ltoes -13.0088
785
root 1.31641 33.2656 -3.36251 -171.033 -10.2107 -178.262
lowerback 5.74403 -0.81879 -5.20245
upperback -1.39473 -1.47625 0.300044
thorax -4.53867 -0.587697 3.37421
lowerneck -21.577 0.494385 -21.3136
upperneck 37.6654 1.93508 12.2867
head 16.9013 -1.54413 9.59412
rclavicle 9.54166e-015 -6.36111e-015
rhumerus -19.3382 -2.66541 -85.4751
rradius 54.5194
rwrist -2.03391
rhand -28.6015 16.8053
rfingers 7.12502
rthumb -1.96686 -13.1653
lclavicle 9.54166e-015 -6.36111e-015
lhumerus -6.90516 -20.5363 90.4182
lradius 57.2842
lwrist 8.66261
lhand -24.1176 23.9718
lfingers 7.12502
lthumb 2.36378 53.9385
rfemur -22.1852 2.05723 22.0785
rtibia 33.1387
rfoot -20.5393 -3.31146
rtoes 9.61236
lfemur -23.9356 5.17009 -25.5142
ltibia 30.7795
lfoot -14.2762 5.8261
ltoes -14.1812
786
root 1.32027 33.2719 -3.36472 -171.135 -10.3016 -178.287
lowerback 5.81752 -0.814434 -5.07641
upperback -1.33856 -1.46297 0.300224
thorax -4.52536 -0.585734 3.30325
lowerneck -21.3679 0.548709 -21.7912
upperneck 37.7545 1.94617 12.7193
head 16.871 -1.57419 9.89185
rclavicle 2.8128e-014 -1.74931e-014
rhumerus -19.3295 -2.57137 -85.3974
rradius 54.5118
rwrist -2.07077
rhand -28.741 16.8808
rfingers 7.12502
rthumb -2.10159 -13.0886
lclavicle 2.8128e-014 -1.74931e-014
lhumerus -6.68202 -20.5567 90.3964
lradius 56.9784
lwrist 8.61772
lhand -24.1204 23.9464
lfingers 7.12502
lthumb 2.36105 53.9131
rfemur -22.0264 1.93793 22.1095
rtibia 32.9995
rfoot -20.4344 -3.35131
rtoes 10.0639
lfemur -23.9396 5.16341 -25.5243
ltibia 30.9497
lfoot -13.8815 5.72436
ltoes -13.4644
787
root 1.32336 33.28 -3.36652 -171.219 -10.4154 -178.264
lowerback 5.85507 -0.83762 -4.87523
upperback -1.30325 -1.47866 0.307929
thorax -4.51218 -0.599547 3.19993
lowerneck -21.0935 0.640194 -22.2938
upperneck 37.8276 1.98924 13.178
head 16.8037 -1.59173 10.2063
rclavicle -4.96962e-016 -1.43125e-014
rhumerus -19.2307 -2.61099 -85.3918
rradius 54.3401
rwrist -1.83208
rhand -28.8412 16.9886
rfingers 7.12502
rthumb -2.19836 -12.9798
lclavicle -4.96962e-016 -1.43125e-014
lhumerus -6.44818 -20.5485 90.395
lradius 56.68
lwrist 8.83345
lhand -23.9546 24.1608
lfingers 7.12502
lthumb 2.5212 54.1256
rfemur -21.8749 1.76276 22.2019
rtibia 32.8526
rfoot -20.3921 -3.44673
rtoes 10.5505
lfemur -23.9482 4.89938 -25.4314
ltibia 31.1268
lfoot -13.187 5.73467
ltoes -10.3508
788
root 1.32702 33.2875 -3.36977 -171.296 -10.443 -178.277
lowerback 5.78011 -0.871426 -4.89271
upperback -1.20841 -1.51186 0.423595
thorax -4.36411 -0.619213 3.32991
lowerneck -20.8627 0.748661 -22.8835
upperneck 37.8761 2.14014 13.5779
head 16.7053 -1.57798 10.5217
rclavicle -3.53837e-014 2.46493e-014
rhumerus -18.972 -2.3938 -85.2912
rradius 54.1372
rwrist -1.60653
rhand -29.0006 17.0294
rfingers 7.12502
rthumb -2.35225 -12.9374
lclavicle -3.53837e-014 2.46493e-014
lhumerus -6.22376 -20.2539 90.5117
lradius 56.4598
lwrist 8.85258
lhand -23.7136 24.0319
lfingers 7.12502
lthumb 2.75398 53.9938
rfemur -21.6924 1.61638 22.2551
rtibia 32.6945
rfoot -20.3665 -3.56205
rtoes 10.3985
lfemur -23.9508 4.86093 -25.401
ltibia 31.2612
lfoot -12.7091 5.62541
ltoes -8.8605
789
root 1.33114 33.293 -3.37331 -171.35 -10.2993 -178.337
lowerback 5.68848 -0.807687 -4.90355
upperback -1.17903 -1.42318 0.39901
thorax -4.29018 -0.578 3.29983
lowerneck -20.361 0.911289 -23.267
upperneck 37.867 2.1743 14.0031
head 16.5354 -1.58123 10.771
rclavicle 2.26615e-014 -7.15625e-015
rhumerus -18.9674 -2.33867 -85.2815
rradius 54.0386
rwrist -1.50599
rhand -29.0836 16.9885
rfingers 7.12502
rthumb -2.43246 -12.9774
lclavicle 2.26615e-014 -7.15625e-015
lhumerus -6.14173 -20.1238 90.5696
lradius 56.202
lwrist 8.82544
lhand -23.5591 23.9246
lfingers 7.12502
lthumb 2.90314 53.8846
rfemur -21.5328 1.56695 22.2292
rtibia 32.5226
rfoot -20.1986 -3.49136
rtoes 10.4603
lfemur -23.9347 5.02985 -25.4583
ltibia 31.36
lfoot -12.5804 5.64423
ltoes -9.90926
790
root 1.33229 33.3047 -3.3772 -171.398 -10.1496 -178.339
lowerback 5.62474 -0.703475 -4.72915
upperback -1.17437 -1.27348 0.2883
thorax -4.26864 -0.510639 3.07181
lowerneck -19.8402 1.05617 -23.5418
upperneck 37.8573 2.10874 14.4675
head 16.3879 -1.60835 11.0069
rclavicle -2.78299e-015 -7.15625e-015
rhumerus -19.0177 -2.59755 -85.3387
rradius 53.906
rwrist -1.29652
rhand -29.0571 17.0656
rfingers 7.12502
rthumb -2.40687 -12.9006
lclavicle -2.78299e-015 -7.15625e-015
lhumerus -6.06442 -20.2552 90.4947
lradius 55.8941
lwrist 8.86473
lhand -23.5236 23.8857
lfingers 7.12502
lthumb 2.93744 53.8453
rfemur -21.385 1.5939 22.2302
rtibia 32.332
rfoot -20.0744 -3.37851
rtoes 10.9934
lfemur -23.9131 5.19138 -25.452
ltibia 31.4361
lfoot -12.5539 5.68224
ltoes -11.1209
791
root 1.33253 33.3163 -3.37956 -171.448 -9.98865 -178.25
lowerback 5.57522 -0.599135 -4.47915
upperback -1.15233 -1.11652 0.213629
thorax -4.2366 -0.441317 2.83852
lowerneck -19.42 1.18184 -23.8273
upperneck 37.8589 2.05691 14.9271
head 16.2693 -1.63106 11.2534
rclavicle 1.74931e-014 4.13472e-014
rhumerus -18.9834 -2.81796 -85.3887
rradius 53.7455
rwrist -1.18907
rhand -29.139 17.14
rfingers 7.12502
rthumb -2.48595 -12.8253
lclavicle 1.74931e-014 4.13472e-014
lhumerus -5.9835 -20.45 90.3373
lradius 55.7153
lwrist 8.95317
lhand -23.4151 23.6891
lfingers 7.12502
lthumb 3.04223 53.6471
rfemur -21.2603 1.6387 22.3354
rtibia 32.1576
rfoot -19.9491 -3.37851
rtoes 10.7409
lfemur -23.8814 5.28733 -25.3233
ltibia 31.4707
lfoot -12.5247 5.75243
ltoes -11.5973
792
root 1.33184 33.3267 -3.38359 -171.391 -9.82013 -178.123
lowerback 5.42124 -0.5247 -4.32036
upperback -1.16264 -0.994024 0.288444
thorax -4.17104 -0.384346 2.8136
lowerneck -19.0748 1.3104 -24.3078
upperneck 37.9016 2.11905 15.3568
head 16.1582 -1.64184 11.5441
rclavicle -2.5842e-015 -1.39149e-014
rhumerus -18.9889 -2.81431 -85.2899
rradius 53.6875
rwrist -1.10292
rhand -29.1815 17.1135
rfingers 7.12502
rthumb -2.52698 -12.8513
lclavicle -2.5842e-015 -1.39149e-014
lhumerus -5.90251 -20.3752 90.394
lradius 55.4885
lwrist 8.9159
lhand -23.407 23.3792
lfingers 7.12502
lthumb 3.05003 53.3372
rfemur -21.2507 1.66681 22.4572
rtibia 31.9628
rfoot -19.7157 -3.28393
rtoes 10.7475
lfemur -23.9384 5.41908 -25.1712
ltibia 31.4781
lfoot -12.5062 5.72808
ltoes -12.2537
